<svg width="36" height="36" viewBox="0 0 36 36" fill="none" xmlns="http://www.w3.org/2000/svg">
<path d="M30.9375 10.125H30.375V9C30.375 5.89838 27.8516 3.375 24.75 3.375H11.25C8.14838 3.375 5.625 5.89838 5.625 9V10.125H5.0625C3.51113 10.125 2.25 11.3872 2.25 12.9375V15.75C2.25 16.371 2.75288 16.875 3.375 16.875C3.99712 16.875 4.5 16.371 4.5 15.75V12.9375C4.5 12.627 4.75312 12.375 5.0625 12.375H5.625V23.625C5.625 25.4554 6.51713 27.0686 7.875 28.0958V30.375C7.875 31.6159 8.88412 32.625 10.125 32.625H12.375C13.6159 32.625 14.625 31.6159 14.625 30.375V29.25H21.375V30.375C21.375 31.6159 22.3841 32.625 23.625 32.625H25.875C27.1159 32.625 28.125 31.6159 28.125 30.375V28.0958C29.4829 27.0675 30.375 25.4543 30.375 23.625V12.375H30.9375C31.2469 12.375 31.5 12.627 31.5 12.9375V15.75C31.5 16.371 32.0029 16.875 32.625 16.875C33.2471 16.875 33.75 16.371 33.75 15.75V12.9375C33.75 11.3872 32.4889 10.125 30.9375 10.125ZM7.875 10.125H28.125V18.4106C27.1069 18.8719 25.9931 19.125 24.8749 19.125H11.1251C10.008 19.125 8.89313 18.8719 7.875 18.4106V10.125ZM11.25 5.625H24.75C26.2148 5.625 27.4522 6.56888 27.918 7.875H8.082C8.54775 6.56888 9.78525 5.625 11.25 5.625ZM12.375 30.375H10.125V29.1364C10.4884 29.2106 10.8652 29.25 11.25 29.25H12.375V30.375ZM25.875 30.375H23.625V29.25H24.75C25.1348 29.25 25.5116 29.2106 25.875 29.1364V30.375ZM24.75 27H11.25C9.38925 27 7.875 25.4858 7.875 23.625V20.8283C8.92125 21.1815 10.0226 21.375 11.1251 21.375H24.876C25.9785 21.375 27.0799 21.1815 28.1261 20.8283V23.625C28.1261 25.4858 26.6108 27 24.75 27Z" fill="#4478FB"/>
<path d="M11.25 24.75C11.8713 24.75 12.375 24.2463 12.375 23.625C12.375 23.0037 11.8713 22.5 11.25 22.5C10.6287 22.5 10.125 23.0037 10.125 23.625C10.125 24.2463 10.6287 24.75 11.25 24.75Z" fill="#4478FB"/>
<path d="M24.75 24.75C25.3713 24.75 25.875 24.2463 25.875 23.625C25.875 23.0037 25.3713 22.5 24.75 22.5C24.1287 22.5 23.625 23.0037 23.625 23.625C23.625 24.2463 24.1287 24.75 24.75 24.75Z" fill="#4478FB"/>
</svg>
