<svg width="17" height="17" viewBox="0 0 17 17" fill="none" xmlns="http://www.w3.org/2000/svg">
<g clip-path="url(#clip0_9983_17788)">
<path d="M10.0575 8.51393L16.6769 1.89427C17.1077 1.46369 17.1077 0.767495 16.6769 0.336913C16.2463 -0.0936684 15.5502 -0.0936684 15.1196 0.336913L8.4999 6.95658L1.88044 0.336913C1.44966 -0.0936684 0.753669 -0.0936684 0.323088 0.336913C-0.107696 0.767495 -0.107696 1.46369 0.323088 1.89427L6.94255 8.51393L0.323088 15.1336C-0.107696 15.5642 -0.107696 16.2604 0.323088 16.691C0.537673 16.9057 0.819819 17.0136 1.10176 17.0136C1.38371 17.0136 1.66566 16.9057 1.88044 16.691L8.4999 10.0713L15.1196 16.691C15.3344 16.9057 15.6163 17.0136 15.8982 17.0136C16.1802 17.0136 16.4621 16.9057 16.6769 16.691C17.1077 16.2604 17.1077 15.5642 16.6769 15.1336L10.0575 8.51393Z" fill="#4478FB"/>
</g>
<defs>
<clipPath id="clip0_9983_17788">
<rect width="17" height="17" fill="white"/>
</clipPath>
</defs>
</svg>
