<svg width="36" height="36" viewBox="0 0 36 36" fill="none" xmlns="http://www.w3.org/2000/svg">
<path d="M15.6014 3.60001H4.80144C4.14192 3.60001 3.60156 4.13929 3.60156 4.79989V15.5999C3.60156 16.2587 4.14192 16.7998 4.80144 16.7998H15.6014C16.2613 16.7998 16.8017 16.2583 16.8017 15.5999V4.79989C16.8017 4.13929 16.2613 3.60001 15.6014 3.60001ZM14.4016 14.4H6.00168V6.00013H14.4016V14.4Z" fill="#4478FB"/>
<path d="M31.2034 3.60001H20.4034C19.7435 3.60001 19.2031 4.13929 19.2031 4.79989V15.5999C19.2031 16.2587 19.7435 16.7998 20.4034 16.7998H31.2034C31.8629 16.7998 32.4032 16.2583 32.4032 15.5999V4.79989C32.4032 4.13929 31.8629 3.60001 31.2034 3.60001ZM30.0031 14.4H21.6032V6.00013H30.0031V14.4Z" fill="#4478FB"/>
<path d="M15.6014 19.2002H4.80144C4.14192 19.2002 3.60156 19.7391 3.60156 20.4001V31.2001C3.60156 31.8585 4.14192 32.4 4.80144 32.4H15.6014C16.2613 32.4 16.8017 31.8585 16.8017 31.2001V20.4001C16.8017 19.7391 16.2613 19.2002 15.6014 19.2002ZM14.4016 30.0002H6.00168V21.6H14.4016V30.0002Z" fill="#4478FB"/>
<path d="M31.2034 19.2002H20.4034C19.7435 19.2002 19.2031 19.7391 19.2031 20.4001V31.2001C19.2031 31.8585 19.7435 32.4 20.4034 32.4H31.2034C31.8629 32.4 32.4032 31.8585 32.4032 31.2001V20.4001C32.4032 19.7391 31.8629 19.2002 31.2034 19.2002ZM30.0031 30.0002H21.6032V21.6H30.0031V30.0002Z" fill="#4478FB"/>
</svg>
