<svg width="24" height="24" viewBox="0 0 24 24" fill="none" xmlns="http://www.w3.org/2000/svg">
<path d="M21.9199 3.33983C18.9058 0.325544 15.1933 0.602216 11.9998 3.25633C8.77255 0.575666 5.06576 0.353925 2.07985 3.33983C-0.693284 6.11333 -0.693284 10.6258 2.07985 13.3993C11.5865 22.9063 10.9696 22.3151 11.4153 22.6705C11.7574 22.9431 12.2426 22.9431 12.5846 22.6705C13.0298 22.3154 12.3957 22.9241 21.9199 13.3993C24.6932 10.6258 24.6932 6.11333 21.9199 3.33983ZM20.5935 12.0738C14.6933 17.9744 12.7648 19.9118 12 20.6655C11.2326 19.9091 9.14645 17.814 3.40627 12.0738C1.36391 10.0312 1.36391 6.70788 3.40627 4.66552C5.86978 2.20201 8.94101 2.69548 11.3192 5.17089C11.6927 5.5598 12.3045 5.56292 12.6809 5.17052C15.0602 2.692 18.1311 2.20274 20.5935 4.66552C22.6359 6.70788 22.6359 10.0312 20.5935 12.0738Z" fill="white"/>
</svg>
