<svg width="32" height="32" viewBox="0 0 32 32" fill="none" xmlns="http://www.w3.org/2000/svg">
<g clip-path="url(#clip0_9968_7178)">
<path d="M15.9974 8C14.9426 8 13.9114 8.31279 13.0344 8.89883C12.1573 9.48486 11.4737 10.3178 11.07 11.2924C10.6664 12.2669 10.5608 13.3392 10.7665 14.3738C10.9723 15.4084 11.4803 16.3587 12.2262 17.1046C12.972 17.8505 13.9224 18.3584 14.9569 18.5642C15.9915 18.77 17.0638 18.6644 18.0384 18.2607C19.0129 17.857 19.8459 17.1734 20.4319 16.2964C21.0179 15.4193 21.3307 14.3882 21.3307 13.3333C21.3307 11.9188 20.7688 10.5623 19.7686 9.5621C18.7684 8.5619 17.4119 8 15.9974 8ZM15.9974 16C15.47 16 14.9544 15.8436 14.5159 15.5506C14.0773 15.2576 13.7356 14.8411 13.5337 14.3538C13.3319 13.8666 13.2791 13.3304 13.382 12.8131C13.4849 12.2958 13.7388 11.8207 14.1118 11.4477C14.4847 11.0748 14.9599 10.8208 15.4772 10.7179C15.9944 10.615 16.5306 10.6678 17.0179 10.8697C17.5052 11.0715 17.9216 11.4133 18.2147 11.8518C18.5077 12.2903 18.6641 12.8059 18.6641 13.3333C18.6641 14.0406 18.3831 14.7189 17.883 15.219C17.3829 15.719 16.7046 16 15.9974 16Z" fill="#7DDEA3"/>
<path d="M16.0004 32C14.8777 32.0058 13.7699 31.7424 12.7698 31.2321C11.7698 30.7217 10.9065 29.9792 10.2524 29.0667C5.17108 22.0573 2.59375 16.788 2.59375 13.404C2.59375 9.84833 4.00623 6.43829 6.52047 3.92406C9.03471 1.40982 12.4447 -0.00266647 16.0004 -0.00266647C19.5561 -0.00266647 22.9661 1.40982 25.4804 3.92406C27.9946 6.43829 29.4071 9.84833 29.4071 13.404C29.4071 16.788 26.8298 22.0573 21.7484 29.0667C21.0943 29.9792 20.2311 30.7217 19.231 31.2321C18.2309 31.7424 17.1232 32.0058 16.0004 32ZM16.0004 2.908C13.217 2.91118 10.5484 4.0183 8.58025 5.9865C6.61205 7.95469 5.50493 10.6232 5.50175 13.4067C5.50175 16.0867 8.02575 21.0427 12.6071 27.3613C12.996 27.897 13.5062 28.333 14.096 28.6337C14.6858 28.9343 15.3384 29.0911 16.0004 29.0911C16.6624 29.0911 17.315 28.9343 17.9048 28.6337C18.4946 28.333 19.0048 27.897 19.3938 27.3613C23.9751 21.0427 26.4991 16.0867 26.4991 13.4067C26.4959 10.6232 25.3888 7.95469 23.4206 5.9865C21.4524 4.0183 18.7839 2.91118 16.0004 2.908Z" fill="#7DDEA3"/>
</g>
<defs>
<clipPath id="clip0_9968_7178">
<rect width="32" height="32" fill="white"/>
</clipPath>
</defs>
</svg>
