<svg width="32" height="32" viewBox="0 0 32 32" fill="none" xmlns="http://www.w3.org/2000/svg">
<g clip-path="url(#clip0_9968_10789)">
<path d="M17.3359 1.33333C17.3359 0.979712 17.4764 0.640574 17.7264 0.390525C17.9765 0.140476 18.3156 6.89179e-07 18.6693 6.89179e-07C22.2043 0.00388282 25.5934 1.40989 28.0931 3.90953C30.5927 6.40918 31.9987 9.79831 32.0026 13.3333C32.0026 13.687 31.8621 14.0261 31.6121 14.2761C31.362 14.5262 31.0229 14.6667 30.6693 14.6667C30.3156 14.6667 29.9765 14.5262 29.7264 14.2761C29.4764 14.0261 29.3359 13.687 29.3359 13.3333C29.3327 10.5053 28.2079 7.79407 26.2082 5.79437C24.2085 3.79467 21.4973 2.66984 18.6693 2.66667C18.3156 2.66667 17.9765 2.52619 17.7264 2.27614C17.4764 2.02609 17.3359 1.68696 17.3359 1.33333ZM18.6693 8C20.0837 8 21.4403 8.5619 22.4405 9.5621C23.4407 10.5623 24.0026 11.9188 24.0026 13.3333C24.0026 13.687 24.1431 14.0261 24.3931 14.2761C24.6432 14.5262 24.9823 14.6667 25.3359 14.6667C25.6895 14.6667 26.0287 14.5262 26.2787 14.2761C26.5288 14.0261 26.6693 13.687 26.6693 13.3333C26.6671 11.2123 25.8236 9.17865 24.3238 7.67882C22.8239 6.17899 20.7903 5.33545 18.6693 5.33333C18.3156 5.33333 17.9765 5.47381 17.7264 5.72386C17.4764 5.97391 17.3359 6.31305 17.3359 6.66667C17.3359 7.02029 17.4764 7.35943 17.7264 7.60948C17.9765 7.85952 18.3156 8 18.6693 8ZM30.7933 22.3187C31.5659 23.0935 31.9998 24.1431 31.9998 25.2373C31.9998 26.3316 31.5659 27.3812 30.7933 28.156L29.5799 29.5547C18.6599 40.0093 -7.91341 13.4427 2.37992 2.488L3.91325 1.15467C4.68894 0.40357 5.72916 -0.0119339 6.80886 -0.00195285C7.88855 0.00802816 8.92091 0.442692 9.68259 1.208C9.72392 1.24933 12.1946 4.45867 12.1946 4.45867C12.9277 5.22884 13.3358 6.25191 13.3341 7.3152C13.3323 8.3785 12.9209 9.40023 12.1853 10.168L10.6413 12.1093C11.4957 14.1855 12.752 16.0723 14.3379 17.6615C15.9239 19.2506 17.8082 20.5107 19.8826 21.3693L21.8359 19.816C22.6038 19.081 23.6253 18.67 24.6883 18.6685C25.7513 18.667 26.774 19.0751 27.5439 19.808C27.5439 19.808 30.7519 22.2773 30.7933 22.3187ZM28.9586 24.2573C28.9586 24.2573 25.7679 21.8027 25.7266 21.7613C25.4519 21.489 25.0807 21.3362 24.6939 21.3362C24.3071 21.3362 23.9359 21.489 23.6613 21.7613C23.6252 21.7987 20.9359 23.9413 20.9359 23.9413C20.7547 24.0856 20.539 24.1801 20.3101 24.2157C20.0812 24.2512 19.847 24.2265 19.6306 24.144C16.9432 23.1434 14.5022 21.577 12.473 19.5508C10.4438 17.5246 8.87379 15.0859 7.86925 12.4C7.78018 12.1806 7.75114 11.9415 7.78512 11.7071C7.8191 11.4728 7.91487 11.2517 8.06259 11.0667C8.06259 11.0667 10.2053 8.376 10.2413 8.34133C10.5136 8.06665 10.6664 7.69549 10.6664 7.30867C10.6664 6.92185 10.5136 6.55069 10.2413 6.276C10.1999 6.236 7.74525 3.04267 7.74525 3.04267C7.46645 2.79268 7.10259 2.65879 6.72825 2.66846C6.35391 2.67813 5.99744 2.83062 5.73192 3.09467L4.19859 4.428C-3.32408 13.4733 19.7039 35.224 27.6306 27.7333L28.8453 26.3333C29.1299 26.0697 29.3009 25.7057 29.322 25.3183C29.3432 24.9309 29.2128 24.5504 28.9586 24.2573Z" fill="#7DDEA3"/>
</g>
<defs>
<clipPath id="clip0_9968_10789">
<rect width="32" height="32" fill="white"/>
</clipPath>
</defs>
</svg>
