<svg width="37" height="29" viewBox="0 0 37 29" fill="none" xmlns="http://www.w3.org/2000/svg">
<g clip-path="url(#clip0_10248_7498)">
<path d="M8.80125 0.0400391C11.5213 0.0400391 13.7613 1.08004 15.5213 3.16003C17.3613 5.24003 18.2812 7.84004 18.2812 10.96C18.2812 14.16 17.2812 17.36 15.2812 20.56C13.2812 23.68 10.5612 26.32 7.12125 28.48L4.12125 22.48L7.96125 15.28C7.56125 15.44 7.04125 15.52 6.40125 15.52C4.64125 15.52 3.16125 14.84 1.96125 13.48C0.84125 12.12 0.28125 10.4 0.28125 8.32004C0.28125 6.00004 1.12125 4.04004 2.80125 2.44003C4.48125 0.840039 6.48125 0.0400391 8.80125 0.0400391ZM27.4012 0.0400391C30.1212 0.0400391 32.3613 1.08004 34.1213 3.16003C35.9613 5.24003 36.8813 7.84004 36.8813 10.96C36.8813 14.16 35.8813 17.36 33.8813 20.56C31.8813 23.68 29.1612 26.32 25.7212 28.48L22.7212 22.48L26.5612 15.28C26.1612 15.44 25.6412 15.52 25.0012 15.52C23.2412 15.52 21.7612 14.84 20.5612 13.48C19.4412 12.12 18.8812 10.4 18.8812 8.32004C18.8812 6.00004 19.7212 4.04004 21.4012 2.44003C23.0812 0.840039 25.0812 0.0400391 27.4012 0.0400391Z" fill="#FEE715"/>
</g>
<defs>
<clipPath id="clip0_10248_7498">
<rect width="37" height="29" fill="white"/>
</clipPath>
</defs>
</svg>
