<svg width="36" height="36" viewBox="0 0 36 36" fill="none" xmlns="http://www.w3.org/2000/svg">
<g clip-path="url(#clip0_9958_912)">
<path d="M33.7537 25.9974C37.2324 21.1165 36.7007 14.4295 31.9491 10.0735C29.778 8.08334 27.0103 6.84436 24.0206 6.49835C24.0019 6.47543 23.9829 6.45272 23.962 6.43099C21.3611 3.72923 17.6244 2.17969 13.7101 2.17969C6.26126 2.17969 0 7.72966 0 14.8359C0 17.3275 0.77393 19.7159 2.24409 21.7787L0.190336 28.2267C0.0612422 28.632 0.188227 29.0751 0.512297 29.3505C0.83693 29.6264 1.29488 29.6794 1.67323 29.487L7.91888 26.3111C9.20152 26.8635 10.5616 27.2258 11.9701 27.3907C14.6872 30.2479 18.444 31.7109 22.2877 31.7109C24.2857 31.7109 26.2764 31.3038 28.0786 30.5298L34.3245 33.7058C34.4758 33.7827 34.6395 33.8203 34.8023 33.8203C35.5141 33.8203 36.0243 33.1267 35.8074 32.4455L33.7537 25.9974ZM8.34455 24.189C8.04916 24.0487 7.70555 24.0533 7.4141 24.2016L2.96564 26.4635L4.4183 21.9026C4.52405 21.5705 4.45901 21.2077 4.24441 20.9332C2.84759 19.1451 2.10923 17.0368 2.10923 14.8359C2.10923 9.02039 7.31334 4.28906 13.7101 4.28906C16.2861 4.28906 18.7659 5.06946 20.7775 6.4748C14.003 7.15598 8.57756 12.4473 8.57756 19.0547C8.57756 21.1098 9.10434 23.0882 10.0975 24.8608C9.49619 24.6817 8.91056 24.4578 8.34455 24.189ZM28.5836 28.4202C28.2964 28.2742 27.9525 28.2654 27.6532 28.4077C26.0089 29.1888 24.1536 29.6016 22.2877 29.6016C15.8909 29.6016 10.6868 24.8702 10.6868 19.0547C10.6868 13.2391 15.8909 8.50781 22.2877 8.50781C28.6844 8.50781 33.8885 13.2391 33.8885 19.0547C33.8885 21.2555 33.1502 23.3639 31.7533 25.1518C31.5387 25.4264 31.4737 25.7892 31.5794 26.1213L33.032 30.6822L28.5836 28.4202Z" fill="#4478FB"/>
<path d="M18 20.1094C18.5825 20.1094 19.0547 19.6372 19.0547 19.0547C19.0547 18.4722 18.5825 18 18 18C17.4175 18 16.9453 18.4722 16.9453 19.0547C16.9453 19.6372 17.4175 20.1094 18 20.1094Z" fill="#4478FB"/>
<path d="M22.2188 20.1094C22.8012 20.1094 23.2734 19.6372 23.2734 19.0547C23.2734 18.4722 22.8012 18 22.2188 18C21.6363 18 21.1641 18.4722 21.1641 19.0547C21.1641 19.6372 21.6363 20.1094 22.2188 20.1094Z" fill="#4478FB"/>
<path d="M26.4375 20.1094C27.02 20.1094 27.4922 19.6372 27.4922 19.0547C27.4922 18.4722 27.02 18 26.4375 18C25.855 18 25.3828 18.4722 25.3828 19.0547C25.3828 19.6372 25.855 20.1094 26.4375 20.1094Z" fill="#4478FB"/>
</g>
<defs>
<clipPath id="clip0_9958_912">
<rect width="36" height="36" fill="white"/>
</clipPath>
</defs>
</svg>
