<svg width="22" height="22" viewBox="0 0 22 22" fill="none" xmlns="http://www.w3.org/2000/svg">
<path d="M9.84945 0.0922546C4.4775 0.0922546 0.101562 4.46819 0.101562 9.84016C0.101562 15.2121 4.4775 19.5966 9.84945 19.5966C12.144 19.5966 14.2542 18.7924 15.922 17.4573L19.9824 21.5156C20.1873 21.712 20.461 21.8204 20.7448 21.8175C21.0287 21.8146 21.3001 21.7007 21.5009 21.5001C21.7018 21.2995 21.8161 21.0283 21.8194 20.7445C21.8227 20.4607 21.7147 20.1868 21.5186 19.9817L17.4582 15.9213C18.7944 14.2509 19.5994 12.1373 19.5994 9.84016C19.5994 4.46819 15.2214 0.0922546 9.84945 0.0922546ZM9.84945 2.25895C14.0504 2.25895 17.4307 5.63917 17.4307 9.84016C17.4307 14.0411 14.0504 17.4299 9.84945 17.4299C5.64846 17.4299 2.26823 14.0411 2.26823 9.84016C2.26823 5.63917 5.64846 2.25895 9.84945 2.25895Z" fill="white"/>
</svg>
