<svg width="24" height="25" viewBox="0 0 24 25" fill="none" xmlns="http://www.w3.org/2000/svg">
<g clip-path="url(#clip0_10160_7507)">
<path d="M23.9374 9.69132C23.7803 9.20535 23.3493 8.86019 22.8393 8.81423L15.9123 8.18524L13.1731 1.77401C12.9712 1.30415 12.5112 1 12.0001 1C11.4891 1 11.0291 1.30415 10.8271 1.77511L8.08797 8.18524L1.15982 8.81423C0.65077 8.86129 0.220828 9.20535 0.0628038 9.69132C-0.0952203 10.1773 0.0507185 10.7103 0.435799 11.0463L5.67183 15.6384L4.12785 22.4396C4.01487 22.9397 4.20897 23.4566 4.62389 23.7566C4.84692 23.9177 5.10785 23.9997 5.37098 23.9997C5.59786 23.9997 5.8229 23.9386 6.02487 23.8177L12.0001 20.2465L17.9732 23.8177C18.4103 24.0807 18.9612 24.0567 19.3752 23.7566C19.7904 23.4557 19.9843 22.9386 19.8713 22.4396L18.3273 15.6384L23.5633 11.0473C23.9484 10.7103 24.0955 10.1782 23.9374 9.69132Z" fill="#FFC107"/>
</g>
<defs>
<clipPath id="clip0_10160_7507">
<rect width="24" height="24" fill="white" transform="translate(0 0.485046)"/>
</clipPath>
</defs>
</svg>
