<svg width="21" height="13" viewBox="0 0 21 13" fill="none" xmlns="http://www.w3.org/2000/svg">
<path d="M19.4909 12.0728C19.0342 12.137 16.8148 12.0728 16.6994 12.0728C16.1256 12.0786 15.5725 11.8584 15.1599 11.4596C14.6904 11.008 14.267 10.5103 13.818 10.0407C13.6817 9.89758 13.535 9.76466 13.3792 9.64302C13.0123 9.36335 12.6506 9.42749 12.4786 9.85854C12.344 10.3257 12.2513 10.804 12.2015 11.2877C12.1935 11.4914 12.105 11.6837 11.9554 11.8222C11.8058 11.9607 11.6073 12.0343 11.4036 12.0266C11.1008 12.042 10.7981 12.0497 10.4979 12.042C9.40582 12.0364 8.33059 11.7726 7.3599 11.2723C6.31198 10.6867 5.39855 9.88778 4.67865 8.92716C3.52682 7.40622 2.53139 5.77295 1.70746 4.05216C1.66385 3.96493 0.799173 2.12525 0.778647 2.04058C0.725039 1.92003 0.719921 1.78347 0.764355 1.65924C0.808789 1.53502 0.899362 1.43268 1.01727 1.37348C1.17121 1.31447 4.0218 1.37348 4.06799 1.37348C4.28026 1.37146 4.48761 1.43734 4.65978 1.56151C4.83196 1.68567 4.95993 1.86163 5.02503 2.06368C5.55223 3.40772 6.2722 4.6679 7.16233 5.8046C7.28649 5.9578 7.43261 6.09181 7.59595 6.20229C7.63805 6.24293 7.69023 6.27159 7.74712 6.28529C7.804 6.299 7.86351 6.29726 7.9195 6.28025C7.97548 6.26325 8.02591 6.2316 8.06556 6.18857C8.10521 6.14554 8.13265 6.0927 8.14503 6.03552C8.2578 5.66455 8.32416 5.28103 8.34259 4.89374C8.35799 4.124 8.34259 3.61085 8.29898 2.84111C8.31449 2.5788 8.22593 2.32095 8.05252 2.12353C7.87911 1.9261 7.63484 1.80503 7.37273 1.78657C7.14694 1.74808 7.11615 1.56335 7.27266 1.37861C7.57286 0.996307 7.98852 0.934729 8.44009 0.911637C9.12259 0.87315 9.80766 0.911637 10.4927 0.911637H10.6415C10.9423 0.910889 11.2424 0.94098 11.537 1.00144C11.7093 1.03672 11.8655 1.12673 11.9825 1.25803C12.0995 1.38934 12.1709 1.55493 12.1861 1.73012C12.2207 1.924 12.2362 2.12079 12.2323 2.31769C12.2144 3.1567 12.1733 3.99571 12.1631 4.83729C12.1569 5.16971 12.187 5.5018 12.2529 5.82769C12.3529 6.27414 12.6583 6.38703 12.9713 6.06118C13.3614 5.64249 13.719 5.19475 14.0412 4.72183C14.6205 3.86074 15.0976 2.9351 15.4627 1.96361C15.6602 1.46585 15.8116 1.35552 16.3479 1.35552H19.3729C19.5534 1.35251 19.7333 1.37673 19.9066 1.42736C19.9678 1.44367 20.0249 1.47237 20.0745 1.51168C20.1241 1.551 20.1651 1.60009 20.1949 1.65591C20.2248 1.71173 20.2428 1.77308 20.2479 1.83617C20.2531 1.89925 20.2452 1.96272 20.2248 2.02262C20.0479 2.66629 19.7443 3.26817 19.3319 3.79302C18.7161 4.66282 18.0695 5.5121 17.4383 6.35881C17.3584 6.46959 17.2856 6.58528 17.2202 6.70519C16.9842 7.13111 17.0021 7.37229 17.3434 7.73151C17.8925 8.29598 18.48 8.8271 19.0086 9.40696C19.3984 9.8295 19.7504 10.2854 20.0606 10.7694C20.4506 11.3955 20.2119 11.9702 19.4909 12.0728Z" fill="white"/>
</svg>
