<svg width="15" height="15" viewBox="0 0 15 15" fill="none" xmlns="http://www.w3.org/2000/svg">
<path d="M12.2633 2.73771C11.1399 1.60162 9.64739 0.904599 8.05516 0.772486C6.46293 0.640373 4.87592 1.08188 3.58068 2.01728C2.28543 2.95269 1.3673 4.32036 0.992034 5.87337C0.616773 7.42638 0.809116 9.06238 1.53434 10.486L0.823811 13.9356C0.816203 13.9701 0.815908 14.0057 0.822946 14.0403C0.829983 14.0749 0.844196 14.1076 0.864666 14.1363C0.893981 14.1798 0.935885 14.2134 0.984771 14.2324C1.03366 14.2515 1.08719 14.2551 1.13822 14.2429L4.51322 13.4418C5.93294 14.148 7.5572 14.3275 9.09687 13.9484C10.6365 13.5693 11.9917 12.6561 12.9212 11.3714C13.8507 10.0868 14.2942 8.51396 14.1728 6.93295C14.0513 5.35194 13.3728 3.86532 12.258 2.73771H12.2633ZM11.2082 11.1521C10.4312 11.9277 9.43078 12.4402 8.34746 12.6177C7.26415 12.7951 6.15245 12.6286 5.16868 12.1415L4.69618 11.9071L2.62322 12.3973V12.3707L3.06019 10.2799L2.82927 9.82521C2.32626 8.83877 2.14865 7.71834 2.32194 6.62469C2.49522 5.53105 3.01049 4.5204 3.79381 3.73778C4.77737 2.75524 6.11074 2.20335 7.50098 2.20335C8.89122 2.20335 10.2246 2.75524 11.2082 3.73778L11.2312 3.76975C12.202 4.75541 12.7439 6.08476 12.739 7.4682C12.734 8.85163 12.1825 10.177 11.2046 11.1557L11.2082 11.1521Z" fill="white"/>
<path d="M11.0268 9.63159C10.7728 10.0313 10.3696 10.5197 9.86686 10.6423C8.97871 10.8555 7.62693 10.6423 5.9341 9.07738L5.91279 9.05784C4.44022 7.68297 4.04943 6.53724 4.13647 5.62955C4.18798 5.11264 4.61785 4.64724 4.98022 4.34172C5.03783 4.29314 5.10601 4.25871 5.17931 4.24118C5.2526 4.22366 5.32898 4.22352 5.40234 4.24078C5.47569 4.25804 5.544 4.29222 5.60178 4.34059C5.65957 4.38896 5.70525 4.45018 5.73515 4.51935L6.28048 5.75211C6.31608 5.83147 6.32944 5.91901 6.31911 6.00537C6.30878 6.09173 6.27517 6.17365 6.22187 6.24238L5.94476 6.59764C5.88716 6.67138 5.85285 6.76062 5.84621 6.85396C5.83956 6.94729 5.86089 7.04049 5.90746 7.12165C6.17068 7.50961 6.48562 7.85981 6.84358 8.16257C7.2287 8.53321 7.66547 8.84613 8.14029 9.09159C8.22695 9.12651 8.32204 9.13486 8.41346 9.11556C8.50488 9.09627 8.58849 9.0502 8.65364 8.98323L8.9716 8.65994C9.0321 8.59488 9.10943 8.54783 9.19502 8.52401C9.28061 8.50018 9.37112 8.5005 9.45654 8.52494L10.7532 8.89619C10.8267 8.9171 10.8942 8.95501 10.9504 9.00686C11.0065 9.0587 11.0496 9.12303 11.0762 9.19463C11.1028 9.26623 11.1122 9.3431 11.1037 9.41901C11.0951 9.49492 11.0687 9.56774 11.0268 9.63159Z" fill="white"/>
</svg>
